name rise30.2954peak35.7071fall66.7804.mot
datacolumns 19
datarows 27
range 7.34164800000000 7.38497400000000
endheader
time	ground_force1_vx	ground_force1_vy	ground_force1_vz	ground_force1_px	ground_force1_py	ground_force1_pz	ground_force2_vx	ground_force2_vy	ground_force2_vz	ground_force2_px	ground_force2_py	ground_force2_pz	ground_torque1_x	ground_torque1_y	ground_torque1_z	ground_torque2_x	ground_torque2_y	ground_torque2_z	
7.34164800000000	63.60436800000000	764.63305100000002	52.51718100000000	0.33694500000000	0.00000000000000	0.08725400000000	0.00000000000000	0.00000000000000	0.00000000000000	0.00000000000000	0.00000000000000	0.00000000000000	0.00000000000000	24.09845900000000	0.00000000000000	0.00000000000000	0.00000000000000	0.00000000000000	
7.34331100000000	63.03539400000000	767.90850200000000	52.58768600000000	0.33644800000000	0.00000000000000	0.08724300000000	0.00000000000000	0.00000000000000	0.00000000000000	0.00000000000000	0.00000000000000	0.00000000000000	0.00000000000000	24.14381500000000	0.00000000000000	0.00000000000000	0.00000000000000	0.00000000000000	
7.34497800000000	62.46393900000000	771.04044799999997	52.65566800000000	0.33597600000000	0.00000000000000	0.08723100000000	0.00000000000000	0.00000000000000	0.00000000000000	0.00000000000000	0.00000000000000	0.00000000000000	0.00000000000000	24.18944700000000	0.00000000000000	0.00000000000000	0.00000000000000	0.00000000000000	
7.34664500000000	61.89039400000000	774.02564700000005	52.72119200000000	0.33552500000000	0.00000000000000	0.08721800000000	0.00000000000000	0.00000000000000	0.00000000000000	0.00000000000000	0.00000000000000	0.00000000000000	0.00000000000000	24.23529000000000	0.00000000000000	0.00000000000000	0.00000000000000	0.00000000000000	
7.34831100000000	61.31509300000000	776.86108800000000	52.78425800000000	0.33509500000000	0.00000000000000	0.08720600000000	0.00000000000000	0.00000000000000	0.00000000000000	0.00000000000000	0.00000000000000	0.00000000000000	0.00000000000000	24.28123400000000	0.00000000000000	0.00000000000000	0.00000000000000	0.00000000000000	
7.34997500000000	60.73831600000000	779.54400999999996	52.84480000000000	0.33468200000000	0.00000000000000	0.08719200000000	0.00000000000000	0.00000000000000	0.00000000000000	0.00000000000000	0.00000000000000	0.00000000000000	0.00000000000000	24.32713300000000	0.00000000000000	0.00000000000000	0.00000000000000	0.00000000000000	
7.35163800000000	60.16029300000000	782.07191899999998	52.90269600000000	0.33428400000000	0.00000000000000	0.08717900000000	0.00000000000000	0.00000000000000	0.00000000000000	0.00000000000000	0.00000000000000	0.00000000000000	0.00000000000000	24.37279800000000	0.00000000000000	0.00000000000000	0.00000000000000	0.00000000000000	
7.35330700000000	59.58120700000000	784.44259899999997	52.95776600000000	0.33389900000000	0.00000000000000	0.08716500000000	0.00000000000000	0.00000000000000	0.00000000000000	0.00000000000000	0.00000000000000	0.00000000000000	0.00000000000000	24.41800900000000	0.00000000000000	0.00000000000000	0.00000000000000	0.00000000000000	
7.35497400000000	59.00120200000000	786.65412700000002	53.00978100000000	0.33352300000000	0.00000000000000	0.08715100000000	0.00000000000000	0.00000000000000	0.00000000000000	0.00000000000000	0.00000000000000	0.00000000000000	0.00000000000000	24.46251200000000	0.00000000000000	0.00000000000000	0.00000000000000	0.00000000000000	
7.35664200000000	58.42037800000000	788.70488399999999	53.05846400000000	0.33315500000000	0.00000000000000	0.08713700000000	0.00000000000000	0.00000000000000	0.00000000000000	0.00000000000000	0.00000000000000	0.00000000000000	0.00000000000000	24.50602300000000	0.00000000000000	0.00000000000000	0.00000000000000	0.00000000000000	
7.35831200000000	57.83880700000000	790.59356200000002	53.10349700000000	0.33279200000000	0.00000000000000	0.08712300000000	0.00000000000000	0.00000000000000	0.00000000000000	0.00000000000000	0.00000000000000	0.00000000000000	0.00000000000000	24.54823300000000	0.00000000000000	0.00000000000000	0.00000000000000	0.00000000000000	
7.35997800000000	57.25652800000000	792.31917599999997	53.14452600000000	0.33243100000000	0.00000000000000	0.08710900000000	0.00000000000000	0.00000000000000	0.00000000000000	0.00000000000000	0.00000000000000	0.00000000000000	0.00000000000000	24.58880900000000	0.00000000000000	0.00000000000000	0.00000000000000	0.00000000000000	
7.36164000000000	56.67355400000000	793.88107000000002	53.18116400000000	0.33207000000000	0.00000000000000	0.08709500000000	0.00000000000000	0.00000000000000	0.00000000000000	0.00000000000000	0.00000000000000	0.00000000000000	0.00000000000000	24.62740200000000	0.00000000000000	0.00000000000000	0.00000000000000	0.00000000000000	
7.36331300000000	56.08988000000000	795.27891999999997	53.21299900000000	0.33170500000000	0.00000000000000	0.08708200000000	0.00000000000000	0.00000000000000	0.00000000000000	0.00000000000000	0.00000000000000	0.00000000000000	0.00000000000000	24.66364300000000	0.00000000000000	0.00000000000000	0.00000000000000	0.00000000000000	
7.36497300000000	55.50548200000000	796.51273900000001	53.23959700000000	0.33133500000000	0.00000000000000	0.08706900000000	0.00000000000000	0.00000000000000	0.00000000000000	0.00000000000000	0.00000000000000	0.00000000000000	0.00000000000000	24.69715400000000	0.00000000000000	0.00000000000000	0.00000000000000	0.00000000000000	
7.36664600000000	54.92032600000000	797.58288100000004	53.26050900000000	0.33095700000000	0.00000000000000	0.08705600000000	0.00000000000000	0.00000000000000	0.00000000000000	0.00000000000000	0.00000000000000	0.00000000000000	0.00000000000000	24.72754600000000	0.00000000000000	0.00000000000000	0.00000000000000	0.00000000000000	
7.36830700000000	54.33436800000000	798.49003800000003	53.27527400000000	0.33056800000000	0.00000000000000	0.08704400000000	0.00000000000000	0.00000000000000	0.00000000000000	0.00000000000000	0.00000000000000	0.00000000000000	0.00000000000000	24.75442600000000	0.00000000000000	0.00000000000000	0.00000000000000	0.00000000000000	
7.36998200000000	53.74756200000000	799.23524399999997	53.28342600000000	0.33016500000000	0.00000000000000	0.08703200000000	0.00000000000000	0.00000000000000	0.00000000000000	0.00000000000000	0.00000000000000	0.00000000000000	0.00000000000000	24.77739700000000	0.00000000000000	0.00000000000000	0.00000000000000	0.00000000000000	
7.37164400000000	53.15986300000000	799.81986700000004	53.28449800000000	0.32974700000000	0.00000000000000	0.08702100000000	0.00000000000000	0.00000000000000	0.00000000000000	0.00000000000000	0.00000000000000	0.00000000000000	0.00000000000000	24.79606700000000	0.00000000000000	0.00000000000000	0.00000000000000	0.00000000000000	
7.37330900000000	52.57123000000000	800.24561000000006	53.27802900000000	0.32931000000000	0.00000000000000	0.08701100000000	0.00000000000000	0.00000000000000	0.00000000000000	0.00000000000000	0.00000000000000	0.00000000000000	0.00000000000000	24.81004600000000	0.00000000000000	0.00000000000000	0.00000000000000	0.00000000000000	
7.37497600000000	51.98162900000000	800.51450299999999	53.26356300000000	0.32885400000000	0.00000000000000	0.08700100000000	0.00000000000000	0.00000000000000	0.00000000000000	0.00000000000000	0.00000000000000	0.00000000000000	0.00000000000000	24.81895300000000	0.00000000000000	0.00000000000000	0.00000000000000	0.00000000000000	
7.37664600000000	51.39104000000000	800.62889800000005	53.24066200000000	0.32837400000000	0.00000000000000	0.08699200000000	0.00000000000000	0.00000000000000	0.00000000000000	0.00000000000000	0.00000000000000	0.00000000000000	0.00000000000000	24.82241700000000	0.00000000000000	0.00000000000000	0.00000000000000	0.00000000000000	
7.37830800000000	50.79945800000000	800.59145899999999	53.20890100000000	0.32787000000000	0.00000000000000	0.08698400000000	0.00000000000000	0.00000000000000	0.00000000000000	0.00000000000000	0.00000000000000	0.00000000000000	0.00000000000000	24.82008500000000	0.00000000000000	0.00000000000000	0.00000000000000	0.00000000000000	
7.37997900000000	50.20689700000000	800.40515800000003	53.16787900000000	0.32733900000000	0.00000000000000	0.08697700000000	0.00000000000000	0.00000000000000	0.00000000000000	0.00000000000000	0.00000000000000	0.00000000000000	0.00000000000000	24.81161500000000	0.00000000000000	0.00000000000000	0.00000000000000	0.00000000000000	
7.38163900000000	49.61339100000000	800.07325700000001	53.11721900000000	0.32678000000000	0.00000000000000	0.08697000000000	0.00000000000000	0.00000000000000	0.00000000000000	0.00000000000000	0.00000000000000	0.00000000000000	0.00000000000000	24.79669100000000	0.00000000000000	0.00000000000000	0.00000000000000	0.00000000000000	
7.38331300000000	49.01900000000000	799.59930499999996	53.05657400000000	0.32619000000000	0.00000000000000	0.08696400000000	0.00000000000000	0.00000000000000	0.00000000000000	0.00000000000000	0.00000000000000	0.00000000000000	0.00000000000000	24.77501300000000	0.00000000000000	0.00000000000000	0.00000000000000	0.00000000000000	
7.38497400000000	48.42381000000000	798.98712000000000	52.98562500000000	0.32556900000000	0.00000000000000	0.08696000000000	0.00000000000000	0.00000000000000	0.00000000000000	0.00000000000000	0.00000000000000	0.00000000000000	0.00000000000000	24.74631100000000	0.00000000000000	0.00000000000000	0.00000000000000	0.00000000000000	
